<svg width="147" height="54" viewBox="0 0 8 34" fill="none" xmlns="http://www.w3.org/2000/svg">
<path d="M11.3053 5.49403C14.8213 13.0393 18.3374 20.5845 21.8534 28.1298C23.8175 32.3419 30.2482 28.6928 28.2967 24.505C24.7807 16.9597 21.2646 9.41448 17.7486 1.86922C15.7844 -2.34284 9.35377 1.30626 11.3053 5.49403Z" fill="url(#paint0_linear_2004_8088)"/>
<path d="M6.13622 17.0326C7.86059 20.7303 9.58497 24.4321 11.3094 28.1298C12.1337 29.8997 14.8086 30.3209 16.411 29.4177C18.3036 28.3526 18.577 26.2789 17.7484 24.505C16.0241 20.8073 14.2997 17.1055 12.5753 13.4078C11.751 11.638 9.07607 11.2168 7.47366 12.1199C5.58105 13.1851 5.30767 15.2587 6.13622 17.0326Z" fill="url(#paint1_linear_2004_8088)"/>
<path d="M0.508902 27.5952C0.593018 27.7734 0.677134 27.9516 0.76125 28.1338C0.996775 28.551 1.31642 28.8872 1.72017 29.1423C2.08187 29.4582 2.50245 29.6729 2.99032 29.7863C3.88195 30.0212 5.0722 29.9159 5.86289 29.4258C6.65778 28.9317 7.36015 28.1946 7.57885 27.2793C7.62512 26.9593 7.66717 26.6434 7.71344 26.3235C7.71344 25.6755 7.541 25.072 7.20454 24.509L6.95219 23.9704C6.71666 23.5532 6.39702 23.2171 5.99327 22.9619C5.63157 22.646 5.21099 22.4314 4.72311 22.318C3.83148 22.0831 2.64124 22.1884 1.85055 22.6784C1.05566 23.1725 0.353287 23.9096 0.134586 24.8249C0.0883218 25.1449 0.0462638 25.4608 0 25.7808C0 26.4288 0.172438 27.0322 0.508902 27.5952Z" fill="#0055FF"/>
<path d="M33.2258 10.751C35.3623 15.3357 37.4989 19.9203 39.6354 24.505C41.5869 28.6887 35.1605 32.3459 33.1921 28.1298C31.0556 23.5451 28.919 18.9605 26.7825 14.3758C24.831 10.1921 31.2575 6.53489 33.2258 10.751Z" fill="url(#paint2_linear_2004_8088)"/>
<path d="M29.0872 1.86922C29.0872 1.86922 29.0998 1.89352 29.104 1.90972C29.3774 2.32283 29.5246 2.76834 29.5456 3.24624C29.6549 3.72415 29.6339 4.20206 29.4783 4.67996C29.2386 5.51428 28.5698 6.41744 27.7623 6.82649C26.8959 7.26795 25.8487 7.48665 24.8898 7.18695C24.0234 6.9156 23.0518 6.37289 22.6607 5.53453C22.6565 5.52238 22.6481 5.51023 22.6439 5.49402C22.3705 5.08092 22.2233 4.63541 22.2023 4.15751C22.0929 3.6796 22.1139 3.20169 22.2696 2.72378C22.5093 1.88947 23.178 0.98631 23.9855 0.577254C24.8519 0.135798 25.8992 -0.0829054 26.8581 0.216799C27.7245 0.488153 28.696 1.03086 29.0872 1.86922Z" fill="#41D9D9"/>
<defs>
<linearGradient id="paint0_linear_2004_8088" x1="13" y1="0.500001" x2="6.5" y2="29" gradientUnits="userSpaceOnUse">
<stop stop-color="#4080FF"/>
<stop offset="1" stop-color="#0055FF"/>
</linearGradient>
<linearGradient id="paint1_linear_2004_8088" x1="7.5" y1="12.5" x2="16" y2="29.5" gradientUnits="userSpaceOnUse">
<stop stop-color="#4080FF"/>
<stop offset="1" stop-color="#0055FF"/>
</linearGradient>
<linearGradient id="paint2_linear_2004_8088" x1="28.3813" y1="9.85571" x2="38.6087" y2="29.033" gradientUnits="userSpaceOnUse">
<stop stop-color="#4080FF"/>
<stop offset="1" stop-color="#0055FF"/>
</linearGradient>
</defs>
</svg>
