<svg width="116" height="29" viewBox="0 0 116 29" fill="none" xmlns="http://www.w3.org/2000/svg">
<rect x="0.5" y="0.5" width="28" height="28" rx="14" fill="#5C48B8" stroke="#5C48B8"/>
<path d="M15.76 5.00015C15.3084 5.00015 14.888 5.13398 14.5333 5.36434H14.5343L14.5279 11.6137C14.7494 11.6893 14.9859 11.7299 15.2321 11.7299C16.0062 11.7299 16.6878 11.3273 17.0878 10.7163C17.177 10.5496 17.3501 10.4355 17.549 10.4355L17.5501 10.4366L17.5512 10.4355H17.5522V10.4344C17.8436 10.4344 18.0791 10.6758 18.0791 10.9719C18.0791 11.0937 18.0425 11.2045 17.9758 11.2944L17.9748 11.2955C17.8146 11.5434 17.6243 11.7672 17.4082 11.9636C17.878 12.3683 18.236 12.9048 18.4242 13.519C18.4403 13.5706 18.4489 13.6233 18.4489 13.6792C18.4489 13.9765 18.2124 14.2167 17.9221 14.2167C17.6866 14.2167 17.4877 14.0598 17.42 13.8438V13.8427C17.2555 13.3062 16.9018 12.8554 16.4384 12.5724L16.4373 12.5713C16.0643 12.7216 15.6579 12.805 15.2321 12.805C14.9902 12.805 14.7548 12.7775 14.5279 12.7282L14.5258 15.8259C14.5591 15.8248 14.5924 15.8248 14.6257 15.8248H14.6537C15.3042 15.8248 15.9439 16.0211 16.4803 16.3853L16.4825 16.3864C16.562 16.4413 16.6276 16.5191 16.6696 16.6157C16.7867 16.8877 16.6653 17.2047 16.3986 17.3243C16.3298 17.355 16.2578 17.3693 16.1879 17.3693C16.0793 17.3693 15.9729 17.3353 15.8847 17.2727L15.8826 17.2716C15.5213 17.0292 15.0966 16.8976 14.6591 16.8976C14.615 16.8976 14.5698 16.8998 14.5247 16.9031L14.5344 22.345H14.5365C15.0311 22.7542 15.6611 22.9999 16.347 22.9999C17.5576 22.9999 18.594 22.2364 19.0176 21.1548H19.052C20.8797 21.1548 22.3603 19.6444 22.3603 17.7805C22.3603 17.2825 22.2539 16.8109 22.0636 16.3863V16.3852C22.6484 15.6613 23 14.7333 23 13.723C23 12.502 22.4872 11.4029 21.6712 10.6373C21.6701 10.5902 21.6701 10.566 21.6701 10.566C21.6701 8.70233 20.1886 7.1906 18.3618 7.1906C18.2564 7.1906 18.1511 7.19609 18.0479 7.20596C17.9823 5.97629 16.9835 5 15.7621 5L15.76 5.00015ZM12.2367 5.00015C11.0154 5.00015 10.0166 5.97644 9.95209 7.20611C9.8478 7.19624 9.74352 7.19076 9.63709 7.19076V7.19185H9.63601L9.63494 7.19295C7.80938 7.19185 6.32885 8.70234 6.32885 10.5661V10.6374C5.51174 11.4031 5 12.5022 5 13.7231C5 14.7333 5.35048 15.6613 5.93535 16.3853V16.3864C5.74613 16.811 5.63862 17.2826 5.63862 17.7806C5.63862 19.6443 7.12014 21.1549 8.94691 21.1549H8.98239C9.40493 22.2365 10.4413 23 11.6519 23C12.3389 23 12.969 22.7543 13.4624 22.3451H13.4646L13.4743 16.9032C13.4291 16.8999 13.385 16.8977 13.3399 16.8977C12.9023 16.8977 12.4776 17.0293 12.1164 17.2717L12.1142 17.2728C12.0261 17.3354 11.9196 17.3694 11.8121 17.3694C11.7411 17.3694 11.6691 17.3551 11.6003 17.3244C11.3337 17.2048 11.2133 16.8878 11.3294 16.6158H11.3304C11.3713 16.5192 11.4369 16.4414 11.5175 16.3865L11.5186 16.3854C12.054 16.0223 12.6915 15.8249 13.342 15.8249H13.3442L13.3506 15.8238C13.3915 15.8238 13.4323 15.8249 13.4732 15.8271L13.471 12.7282C13.2442 12.7776 13.0087 12.805 12.7668 12.805C12.3411 12.805 11.9347 12.7217 11.5616 12.5714L11.5605 12.5725C11.0971 12.8555 10.7434 13.3063 10.5789 13.8427V13.8438C10.5112 14.0599 10.3123 14.2168 10.0769 14.2168C9.78657 14.2168 9.55111 13.9766 9.55111 13.6793C9.55111 13.6233 9.55971 13.5707 9.57476 13.5191C9.76398 12.9048 10.1209 12.3684 10.5908 11.9636C10.3746 11.7673 10.1843 11.5435 10.0242 11.2956L10.0231 11.2945C9.9575 11.2046 9.91987 11.0938 9.91987 10.972C9.91987 10.6758 10.1553 10.4345 10.4467 10.4345V10.4356H10.4488C10.6477 10.4356 10.8219 10.5497 10.9111 10.7164C11.3111 11.3274 11.9927 11.73 12.7668 11.73C13.013 11.73 13.2495 11.6894 13.471 11.6148L13.4646 5.36439C13.1098 5.13293 12.6894 5.00019 12.2389 5.00019L12.2367 5.00015Z" fill="#CCE6FF"/>
<path d="M42.46 6.6C43.6467 6.6 44.6733 6.82667 45.54 7.28C46.4067 7.72 47.14 8.37333 47.74 9.24L46.3 10.62C45.7933 9.84667 45.22 9.29333 44.58 8.96C43.9533 8.61333 43.2067 8.44 42.34 8.44C41.7 8.44 41.1733 8.52667 40.76 8.7C40.3467 8.87333 40.04 9.10667 39.84 9.4C39.6533 9.68 39.56 10 39.56 10.36C39.56 10.7733 39.7 11.1333 39.98 11.44C40.2733 11.7467 40.8133 11.9867 41.6 12.16L44.28 12.76C45.56 13.04 46.4667 13.4667 47 14.04C47.5333 14.6133 47.8 15.34 47.8 16.22C47.8 17.0333 47.58 17.74 47.14 18.34C46.7 18.94 46.0867 19.4 45.3 19.72C44.5267 20.04 43.6133 20.2 42.56 20.2C41.6267 20.2 40.7867 20.08 40.04 19.84C39.2933 19.6 38.64 19.2733 38.08 18.86C37.52 18.4467 37.06 17.9733 36.7 17.44L38.18 15.96C38.46 16.4267 38.8133 16.8467 39.24 17.22C39.6667 17.58 40.16 17.86 40.72 18.06C41.2933 18.26 41.9267 18.36 42.62 18.36C43.2333 18.36 43.76 18.2867 44.2 18.14C44.6533 17.9933 44.9933 17.78 45.22 17.5C45.46 17.2067 45.58 16.86 45.58 16.46C45.58 16.0733 45.4467 15.7333 45.18 15.44C44.9267 15.1467 44.4467 14.92 43.74 14.76L40.84 14.1C40.04 13.9267 39.38 13.68 38.86 13.36C38.34 13.04 37.9533 12.6533 37.7 12.2C37.4467 11.7333 37.32 11.2133 37.32 10.64C37.32 9.89333 37.52 9.22 37.92 8.62C38.3333 8.00667 38.9267 7.52 39.7 7.16C40.4733 6.78667 41.3933 6.6 42.46 6.6ZM50.4139 20V10H52.3139L52.4139 11.68C52.7606 11.04 53.2206 10.5667 53.7939 10.26C54.3806 9.95333 55.0006 9.8 55.6539 9.8C56.3739 9.8 57.0339 9.96667 57.6339 10.3C58.2472 10.62 58.7072 11.1067 59.0139 11.76C59.2272 11.32 59.5206 10.9533 59.8939 10.66C60.2672 10.3667 60.6806 10.1533 61.1339 10.02C61.5872 9.87333 62.0339 9.8 62.4739 9.8C63.1139 9.8 63.7139 9.93333 64.2739 10.2C64.8339 10.4667 65.2872 10.8733 65.6339 11.42C65.9806 11.9667 66.1539 12.6667 66.1539 13.52V20H64.0139V13.86C64.0139 13.0467 63.8206 12.46 63.4339 12.1C63.0472 11.74 62.5539 11.56 61.9539 11.56C61.4872 11.56 61.0539 11.6733 60.6539 11.9C60.2672 12.1267 59.9539 12.4667 59.7139 12.92C59.4739 13.36 59.3539 13.9067 59.3539 14.56V20H57.2139V13.86C57.2139 13.0467 57.0206 12.46 56.6339 12.1C56.2472 11.74 55.7539 11.56 55.1539 11.56C54.7539 11.56 54.3539 11.6667 53.9539 11.88C53.5539 12.0933 53.2206 12.4267 52.9539 12.88C52.6872 13.3333 52.5539 13.9333 52.5539 14.68V20H50.4139ZM75.1783 13.58C75.1783 12.9133 74.9916 12.4 74.6183 12.04C74.2583 11.6667 73.7583 11.48 73.1183 11.48C72.5183 11.48 72.0049 11.62 71.5783 11.9C71.1516 12.18 70.8383 12.6333 70.6383 13.26L68.8383 12.5C69.0916 11.6867 69.5849 11.0333 70.3183 10.54C71.0649 10.0467 72.0249 9.8 73.1983 9.8C73.9983 9.8 74.7049 9.93333 75.3183 10.2C75.9316 10.4533 76.4116 10.84 76.7583 11.36C77.1183 11.88 77.2983 12.5467 77.2983 13.36V17.82C77.2983 18.3133 77.5449 18.56 78.0383 18.56C78.2783 18.56 78.5116 18.5267 78.7383 18.46L78.6183 19.94C78.3116 20.0867 77.9249 20.16 77.4583 20.16C77.0316 20.16 76.6449 20.0867 76.2983 19.94C75.9649 19.78 75.6983 19.5467 75.4983 19.24C75.3116 18.92 75.2183 18.5267 75.2183 18.06V17.92L75.6583 17.9C75.5383 18.42 75.2916 18.8533 74.9183 19.2C74.5449 19.5333 74.1116 19.7867 73.6183 19.96C73.1249 20.12 72.6249 20.2 72.1183 20.2C71.4916 20.2 70.9249 20.1 70.4183 19.9C69.9249 19.7 69.5316 19.4 69.2383 19C68.9583 18.5867 68.8183 18.08 68.8183 17.48C68.8183 16.7333 69.0583 16.12 69.5383 15.64C70.0316 15.16 70.7249 14.8333 71.6183 14.66L75.4983 13.9L75.4783 15.4L72.6583 15.98C72.0983 16.0867 71.6783 16.24 71.3983 16.44C71.1183 16.64 70.9783 16.9333 70.9783 17.32C70.9783 17.6933 71.1183 17.9933 71.3983 18.22C71.6916 18.4333 72.0783 18.54 72.5583 18.54C72.8916 18.54 73.2116 18.5 73.5183 18.42C73.8383 18.34 74.1249 18.2133 74.3783 18.04C74.6316 17.8533 74.8249 17.62 74.9583 17.34C75.1049 17.0467 75.1783 16.7 75.1783 16.3V13.58ZM80.8045 20V10H82.6245L82.8245 11.8C83.0912 11.1467 83.4845 10.6533 84.0045 10.32C84.5379 9.97333 85.1912 9.8 85.9645 9.8C86.1645 9.8 86.3645 9.82 86.5645 9.86C86.7645 9.88667 86.9312 9.93333 87.0645 10L86.7645 11.88C86.6179 11.8267 86.4512 11.7867 86.2645 11.76C86.0912 11.72 85.8512 11.7 85.5445 11.7C85.1312 11.7 84.7245 11.8133 84.3245 12.04C83.9245 12.2533 83.5912 12.58 83.3245 13.02C83.0712 13.46 82.9445 14.02 82.9445 14.7V20H80.8045ZM91.5175 7.06V17C91.5175 17.4933 91.6442 17.8533 91.8975 18.08C92.1642 18.3067 92.5175 18.42 92.9575 18.42C93.3175 18.42 93.6308 18.3667 93.8975 18.26C94.1642 18.14 94.4108 17.98 94.6375 17.78L95.1175 19.34C94.8108 19.6067 94.4308 19.82 93.9775 19.98C93.5375 20.1267 93.0442 20.2 92.4975 20.2C91.9242 20.2 91.3975 20.1067 90.9175 19.92C90.4375 19.7333 90.0642 19.4333 89.7975 19.02C89.5308 18.5933 89.3908 18.04 89.3775 17.36V7.66L91.5175 7.06ZM94.9575 10V11.68H87.4575V10H94.9575ZM101.474 20.2C100.474 20.2 99.5941 19.9933 98.8341 19.58C98.0741 19.1667 97.4807 18.5733 97.0541 17.8C96.6407 17.0133 96.4341 16.08 96.4341 15C96.4341 13.92 96.6407 12.9933 97.0541 12.22C97.4807 11.4333 98.0674 10.8333 98.8141 10.42C99.5607 10.0067 100.407 9.8 101.354 9.8C102.327 9.8 103.154 10 103.834 10.4C104.514 10.8 105.034 11.3467 105.394 12.04C105.754 12.7333 105.934 13.52 105.934 14.4C105.934 14.64 105.927 14.8667 105.914 15.08C105.901 15.2933 105.881 15.48 105.854 15.64H97.8141V14H104.914L103.854 14.32C103.854 13.4133 103.627 12.72 103.174 12.24C102.721 11.7467 102.101 11.5 101.314 11.5C100.741 11.5 100.241 11.6333 99.8141 11.9C99.3874 12.1667 99.0607 12.5667 98.8341 13.1C98.6074 13.62 98.4941 14.26 98.4941 15.02C98.4941 15.7667 98.6141 16.4 98.8541 16.92C99.0941 17.44 99.4341 17.8333 99.8741 18.1C100.314 18.3667 100.834 18.5 101.434 18.5C102.101 18.5 102.641 18.3733 103.054 18.12C103.467 17.8667 103.794 17.5133 104.034 17.06L105.734 17.86C105.494 18.34 105.167 18.76 104.754 19.12C104.354 19.4667 103.874 19.7333 103.314 19.92C102.754 20.1067 102.141 20.2 101.474 20.2ZM108.637 20V10H110.457L110.657 11.8C110.923 11.1467 111.317 10.6533 111.837 10.32C112.37 9.97333 113.023 9.8 113.797 9.8C113.997 9.8 114.197 9.82 114.397 9.86C114.597 9.88667 114.763 9.93333 114.897 10L114.597 11.88C114.45 11.8267 114.283 11.7867 114.097 11.76C113.923 11.72 113.683 11.7 113.377 11.7C112.963 11.7 112.557 11.8133 112.157 12.04C111.757 12.2533 111.423 12.58 111.157 13.02C110.903 13.46 110.777 14.02 110.777 14.7V20H108.637Z" fill="#CCE6FF"/>
</svg>
